<?xml version="1.0" standalone="no"?>
<!DOCTYPE svg PUBLIC "-//W3C//DTD SVG 20010904//EN"
 "http://www.w3.org/TR/2001/REC-SVG-20010904/DTD/svg10.dtd">
<svg version="1.0" xmlns="http://www.w3.org/2000/svg"
 width="1280.000000pt" height="1126.000000pt" viewBox="0 0 1280.000000 1126.000000"
 preserveAspectRatio="xMidYMid meet">
<g transform="translate(0.000000,1126.000000) scale(0.100000,-0.100000)"
fill="#000000" stroke="none">
<path d="M2305 11229 c-71 -15 -157 -38 -190 -50 -90 -32 -187 -101 -262 -187
-37 -42 -102 -111 -144 -152 -43 -42 -87 -97 -101 -125 -46 -91 -117 -321
-338 -1085 -72 -250 -205 -709 -295 -1020 -246 -846 -307 -1070 -406 -1470
-110 -446 -129 -510 -291 -975 -135 -385 -172 -509 -183 -610 -4 -33 -15 -94
-25 -135 -11 -41 -26 -129 -35 -195 -9 -66 -20 -132 -26 -146 -7 -19 -6 -48 5
-105 8 -43 31 -167 51 -274 42 -230 61 -277 164 -404 78 -95 119 -170 174
-313 52 -134 160 -342 288 -553 61 -102 122 -203 135 -225 22 -39 23 -50 30
-340 6 -321 11 -361 75 -705 47 -250 41 -237 238 -539 70 -108 186 -286 256
-396 309 -482 365 -556 481 -627 32 -20 115 -75 184 -123 69 -48 170 -108 225
-135 103 -49 292 -110 344 -110 51 0 188 49 232 83 87 67 104 116 89 262 -16
156 -58 208 -181 225 -63 9 -115 39 -145 85 -8 13 -161 157 -339 320 -206 189
-330 310 -340 332 -23 48 -18 175 8 200 37 37 79 23 372 -127 154 -79 297
-156 317 -172 36 -28 330 -159 491 -219 84 -31 160 -37 287 -20 325 44 313 40
378 108 36 36 58 52 70 49 9 -3 159 -42 332 -86 173 -45 405 -106 515 -135
110 -30 259 -64 330 -75 176 -28 302 -53 550 -110 371 -86 300 -82 1510 -77
239 1 287 -2 590 -36 787 -89 1155 -127 1177 -122 40 10 363 -51 1548 -295
190 -38 386 -75 435 -80 50 -6 119 -19 153 -30 35 -11 75 -20 88 -20 14 0 38
-7 53 -15 16 -8 71 -19 122 -25 52 -6 129 -15 172 -21 79 -10 194 -49 277 -93
25 -13 63 -28 84 -32 22 -4 55 -17 74 -30 32 -22 91 -44 118 -44 6 0 17 -7 24
-15 13 -16 85 -21 94 -7 11 18 206 35 333 29 112 -6 133 -4 169 12 49 23 81
60 95 115 5 22 16 64 24 91 21 74 28 145 15 145 -6 0 -16 11 -22 25 -6 14 -36
44 -67 67 -43 32 -68 44 -111 49 -51 7 -59 12 -108 66 -75 84 -81 127 -21 181
17 15 53 57 80 93 44 60 49 72 49 118 0 29 -7 65 -15 80 -23 45 -92 99 -185
144 -95 46 -113 48 -505 67 -311 14 -446 40 -725 138 -664 235 -1498 535
-1606 579 -48 19 -64 30 -64 44 0 33 45 43 131 29 93 -15 129 -8 162 30 17 18
40 31 64 35 72 12 82 15 113 41 40 35 57 68 75 154 8 38 28 97 45 130 16 33
30 75 30 94 0 21 -21 77 -55 148 -66 135 -78 210 -51 314 21 79 21 75 -14 114
-26 29 -30 41 -30 91 0 54 -4 64 -56 141 -116 170 -191 238 -364 328 -92 48
-109 61 -138 106 -27 42 -48 59 -114 95 -134 72 -192 157 -298 437 -67 180
-115 268 -159 297 -20 13 -47 33 -61 44 -31 25 -47 26 -81 3 -225 -148 -282
-198 -298 -257 -8 -30 -36 -67 -113 -147 -115 -118 -109 -115 -287 -143 -58
-9 -120 -23 -138 -32 -18 -8 -82 -62 -142 -118 -108 -103 -109 -103 -167 -109
-195 -19 -306 -39 -416 -76 -64 -22 -124 -40 -132 -40 -17 0 -874 300 -944
330 -23 11 -89 50 -146 88 -59 40 -127 77 -158 86 -40 11 -82 38 -167 106
-187 150 -723 625 -1439 1274 -442 401 -454 412 -516 443 -28 14 -130 83 -227
153 -228 166 -383 272 -439 300 -25 13 -301 137 -614 276 -313 139 -578 260
-590 268 -26 16 -187 398 -211 497 -35 150 -20 296 166 1629 25 183 41 250
128 541 38 128 97 331 131 449 34 118 70 234 81 256 23 48 208 221 266 250 30
14 77 20 223 27 l185 9 495 -71 c272 -38 545 -76 606 -82 109 -12 112 -12 160
12 112 55 136 188 48 273 -30 29 -74 47 -287 120 -462 158 -533 176 -777 195
-74 6 -198 23 -275 37 -195 37 -229 37 -380 3z"/>
</g>
</svg>
